<svg width="150" height="150" viewBox="0 0 150 150" fill="none" xmlns="http://www.w3.org/2000/svg">
<g clip-path="url(#clip0_195_59)">
<path d="M150 0C150 50.0846 150 99.89 150 149.975C99.9662 149.975 50.1607 149.975 0 149.975C0 100.068 0 50.1607 0 0C49.8816 0 99.7124 0 150 0ZM146.499 75.1015C146.499 52.774 146.423 30.4212 146.575 8.09371C146.6 4.51624 145.737 3.34912 141.982 3.37449C97.3021 3.50135 52.6218 3.50135 7.94148 3.37449C4.26252 3.37449 3.273 4.38938 3.29838 8.04297C3.42524 52.7233 3.42524 97.4036 3.29838 142.084C3.29838 145.509 4.08492 146.625 7.68776 146.6C52.4949 146.473 97.3021 146.473 142.135 146.6C145.661 146.6 146.6 145.636 146.575 142.135C146.423 119.782 146.499 97.429 146.499 75.1015Z" fill="#F8B92D"/>
<path d="M114.479 128.205C117.777 128.205 121 128.205 124.704 128.205C108.948 112.525 93.6485 97.3273 78.5521 82.2817C80.861 78.3236 80.9117 78.2729 83.6012 80.9623C97.3275 94.6633 111.028 108.364 124.729 122.091C125.617 122.979 126.582 123.841 128.155 125.313C128.155 121.228 128.155 118.006 128.155 114.682C130.743 113.768 132.316 113.667 132.24 116.813C132.163 120.923 132.138 125.059 132.265 129.169C132.316 131.326 131.656 132.341 129.347 132.265C125.237 132.138 121.101 132.138 116.991 132.265C114.428 132.315 113.515 131.377 114.479 128.205Z" fill="#F8B92D"/>
<path d="M21.6171 25.5751C21.6171 28.8228 21.6171 32.0958 21.6171 35.3941C18.9277 36.2314 17.5322 35.9777 17.6337 32.9838C17.7606 28.8735 17.7606 24.7379 17.6337 20.6276C17.5576 18.268 18.6232 17.659 20.7545 17.7098C24.8648 17.8113 29.0004 17.8113 33.1107 17.7098C35.8255 17.6337 36.2822 18.9023 35.4196 21.5156C32.2481 21.5156 28.975 21.5156 25.4991 21.5156C41.1283 37.0433 56.4784 52.3174 71.6256 67.363C68.9615 71.5494 68.9108 71.6002 66.2467 68.9361C52.5965 55.3113 38.9717 41.6864 25.3722 28.0362C24.4588 27.0975 23.6723 26.0318 22.8096 25.0423C22.3783 25.2199 21.9977 25.3975 21.6171 25.5751Z" fill="#F8B92D"/>
</g>
<defs>
<clipPath id="clip0_195_59">
<rect width="150" height="150" fill="white"/>
</clipPath>
</defs>
</svg>
