<svg width="150" height="150" viewBox="0 0 150 150" fill="none" xmlns="http://www.w3.org/2000/svg">
<path d="M0.0379741 124.051C2.96202 120.386 5.90506 116.759 8.81013 113.076C20.3165 98.4747 31.8038 83.8544 43.3291 69.2532C44.0316 68.3608 44.1456 67.7911 43.5 66.7848C39.8924 60.9937 37.443 54.8038 36.7215 47.9114C35.5063 36.2152 44.0316 25.0127 55.6519 23.2848C56.0127 23.2278 56.3734 23.0949 56.7342 23C58.3671 23 60 23 61.6329 23C62.7911 23.2658 63.9684 23.4937 65.1076 23.8165C76.2152 26.7785 83.3165 37.7532 81.6266 49.1076C80.7532 55.0886 78.5506 60.538 75.5316 65.7215C75.2089 66.2911 74.8861 66.8608 74.4684 67.6202C75.1899 67.6202 75.7025 67.6202 76.2152 67.6202C99.9494 67.6202 123.703 67.6203 147.437 67.6013C148.538 67.6013 149.411 67.8291 150 68.7785C150 69.2532 150 69.7468 150 70.2215C149.772 70.5063 149.487 70.7532 149.297 71.0759C140.411 86.1329 131.544 101.209 122.639 116.247C120.57 119.741 118.424 123.177 116.297 126.633C77.5253 126.633 38.7532 126.633 0 126.633C0.0379747 125.778 0.0379741 124.905 0.0379741 124.051ZM135.285 87.8038C134.81 87.7658 134.62 87.7468 134.43 87.7468C114.949 87.7468 95.4683 87.7278 76.0063 87.7848C75.3797 87.7848 74.5633 88.2595 74.1646 88.7722C65.9241 99.3671 57.7215 110 49.5 120.614C48.9494 121.335 48.3987 122.076 47.6962 123.025C48.3987 123.025 48.7785 123.025 49.1582 123.025C70.5 123.025 91.8608 123.025 113.203 123.044C114.19 123.044 114.741 122.741 115.234 121.886C120.038 113.646 124.899 105.443 129.741 97.2405C131.544 94.1646 133.348 91.0886 135.285 87.8038ZM59.1646 80.6076C59.3544 80.5316 59.4684 80.5127 59.5253 80.4557C60.2278 79.7342 60.9114 78.9937 61.5949 78.2532C67.0823 72.2532 72 65.8354 75.3038 58.3354C77.5443 53.2279 78.9873 47.9114 77.962 42.2722C76.1203 32.019 66.2468 25.0506 56.3164 26.8165C45.6646 28.7152 38.7911 38.4367 40.481 49.0506C41.3354 54.3861 43.2532 59.2848 45.9684 63.8987C49.5949 70.0886 54.1899 75.519 59.1646 80.6076ZM83.1076 71.2468C82.443 71.2089 82.0443 71.1519 81.6266 71.1519C78.8354 71.1519 76.0633 71.1899 73.2722 71.1329C72.3418 71.1139 71.8291 71.4747 71.2595 72.1582C67.8608 76.1835 64.4241 80.1899 60.9304 84.1392C59.7342 85.5063 58.8608 85.4494 57.5506 84.1203C56.3354 82.8861 55.1202 81.6709 53.981 80.3608C51.4177 77.3987 48.8924 74.3987 46.2721 71.3038C39.1519 80.3418 32.0316 89.3987 24.7025 98.6835C25.5 98.6835 25.9747 98.6835 26.4304 98.6835C37.8038 98.6835 49.1772 98.6646 60.5506 98.7025C61.576 98.7025 62.1835 98.3608 62.7911 97.5633C68.2405 90.443 73.7468 83.3608 79.2342 76.2785C80.4873 74.6835 81.7215 73.0506 83.1076 71.2468ZM59.0886 102.329C58.5 102.291 58.2722 102.253 58.0443 102.253C46.3861 102.253 34.7278 102.234 23.0886 102.291C22.443 102.291 21.6076 102.69 21.2089 103.203C17.8291 107.38 14.5443 111.614 11.2215 115.848C9.39873 118.165 7.57595 120.481 5.62025 122.968C6.13291 123.006 6.41772 123.044 6.68354 123.044C18.4747 123.044 30.2848 123.063 42.0759 122.987C42.6835 122.987 43.481 122.456 43.8987 121.943C46.9937 118.032 50.0127 114.063 53.0696 110.133C55.0063 107.589 56.962 105.063 59.0886 102.329ZM145.101 71.1519C144.19 71.1519 143.639 71.1519 143.07 71.1519C125.316 71.1519 107.582 71.1709 89.8291 71.1139C88.3481 71.1139 87.3038 71.4177 86.4873 72.7278C85.8038 73.8671 84.8734 74.8544 84.038 75.9177C82.0063 78.557 79.9747 81.1962 77.7342 84.1013C78.5506 84.1013 79.0633 84.1013 79.576 84.1013C83.0696 84.1013 86.5823 84.1013 90.076 84.1013C105.418 84.1013 120.778 84.1013 136.12 84.0823C136.671 84.0823 137.487 83.9304 137.715 83.5506C140.184 79.5633 142.538 75.519 145.101 71.1519Z" fill="#F8B92D"/>
<path d="M48.9493 42.8988C48.9493 37.0886 53.5633 32.4747 59.3544 32.5127C65.0126 32.5507 69.7025 37.2785 69.6455 42.9177C69.6076 48.6139 64.9557 53.2279 59.2595 53.2279C53.5443 53.2279 48.9493 48.6139 48.9493 42.8988ZM66 42.8798C66 39.1203 63 36.1203 59.2595 36.1393C55.5 36.1582 52.5 39.1393 52.462 42.8798C52.443 46.5443 55.5569 49.6583 59.2405 49.6393C63.019 49.6013 66 46.6203 66 42.8798Z" fill="#F8B92D"/>
</svg>
