<svg width="150" height="150" viewBox="0 0 150 150" fill="none" xmlns="http://www.w3.org/2000/svg">
<g clip-path="url(#clip0_195_54)">
<path fill-rule="evenodd" clip-rule="evenodd" d="M10.1831 94.8568H139.796V83.1864C139.796 79.6337 136.884 76.7213 133.331 76.7213H16.6483C13.0956 76.7213 10.1831 79.6337 10.1831 83.1864V94.8568ZM109.164 72.0945V60.7959C109.164 57.2432 106.252 54.3308 102.699 54.3308H47.3217C43.7689 54.3308 40.8565 57.2432 40.8565 60.7959V72.0738L109.164 72.0945ZM36.209 72.0945H24.4974V29.1518H125.503V72.0738H113.791V60.7753C113.791 54.6819 108.792 49.6833 102.699 49.6833H47.3217C41.2283 49.6833 36.2297 54.6819 36.2297 60.7753L36.209 72.0945ZM144.444 95.2079C147.728 96.2201 150 99.2771 150 102.747V123.527C150 124.807 148.967 125.84 147.687 125.84H136.553C135.273 125.84 134.24 124.807 134.24 123.527C134.24 119.974 131.327 117.061 127.775 117.061H22.2253C18.6725 117.061 15.7601 119.974 15.7601 123.527C15.7601 124.807 14.7273 125.84 13.4467 125.84H2.31341C1.03278 125.84 0 124.807 0 123.527V102.747C0 99.2771 2.2721 96.2201 5.55632 95.2079V83.1864C5.55632 77.0931 10.5549 72.0945 16.6483 72.0945H19.8499V27.0862C19.8499 25.9295 20.8827 25 22.1633 25H127.795C129.076 25 130.109 25.9295 130.109 27.0862V72.0945H133.31C139.424 72.0945 144.402 77.0931 144.402 83.1864V95.2079H144.444ZM142.13 99.5043H7.86973C6.09336 99.5043 4.62682 100.971 4.62682 102.747V121.213H11.3812C12.4759 116.111 16.9995 112.435 22.2253 112.435H127.775C133.001 112.435 137.545 116.132 138.639 121.213H145.394V102.747C145.373 100.971 143.907 99.5043 142.13 99.5043Z" fill="#F8B92D"/>
</g>
<defs>
<clipPath id="clip0_195_54">
<rect width="150" height="150" fill="white"/>
</clipPath>
</defs>
</svg>
