<?xml version="1.0" encoding="utf-8"?>
<!-- Generator: Adobe Illustrator 26.0.1, SVG Export Plug-In . SVG Version: 6.00 Build 0)  -->
<svg version="1.1" id="Layer_1" xmlns="http://www.w3.org/2000/svg" xmlns:xlink="http://www.w3.org/1999/xlink" x="0px" y="0px"
	 viewBox="0 0 1200 1200" style="enable-background:new 0 0 1200 1200;" xml:space="preserve">
<path d="M426.2,533.1c9-7.4,16.6-15.5,24-23.3l6.5-6.7c39.4-40.6,39.3-97.3-0.2-137.4c-26-26.4-53.4-53.9-83.8-83.7
	c-41.6-40.9-97.6-40.7-139.3,0.3c-6.6,6.5-13.1,13.2-19.5,19.7c-11.8,12.1-22.8,23.6-34.9,34c-32,27.9-44.2,65.8-36.9,115.9
	c6.4,44,23.9,83.5,38.5,113c40.7,82.3,96.8,160,171.4,237.4c88.4,91.8,170.8,156.8,259.4,204.9c40.8,22.1,90.2,45.3,147.9,49.2
	c4,0.2,8,0.5,11.7,0.5c31.6,0,56.6-9.3,76.1-28.3c20.7-20.1,42.6-42,71-70.9c17.9-18.4,26.1-41.2,25.8-71.6
	c0-14.8-4.4-37.1-26.1-59.1c-29.1-29.7-59.2-60.4-90.6-90.4c-38.4-36.8-94.4-36.1-133,1.5c-12.2,11.9-24.3,23.9-36.2,36.2
	c-3.1,3.2-5.8,4.5-6.6,4.4l-7.5-1.4c-14.1-2.5-27.3-4.8-37.6-9.8c-56.8-27.7-105.8-71.2-154.3-136.9c-16.4-22.1-27.1-43.5-33.3-65.1
	c-5-17.8-1-25.3,7.5-32.3L426.2,533.1z M414.5,476c-6.7,7-13.1,13.7-19.8,19.3c-25.1,20.9-32.9,48.8-23.4,83.2
	c7.6,27.6,21.1,54.1,41,81.1c53.4,72.3,108,120.5,172.2,151.8c16.6,8.1,34.8,11.2,50.8,14.1l7.2,1.2c17.9,3.3,35.9-3.4,50.7-18.6
	c11.6-11.9,23.3-23.6,35.2-35.2c19.5-19.1,45.6-19.5,64.7-1.2c30.9,29.5,60.7,59.9,89.5,89.3c8.1,8.2,12,16.6,12,25.1
	c0.2,20.4-4.5,29.5-11.7,37c-28.1,28.6-49.6,50.3-70.1,70.1c-11.7,11.3-27.3,15.7-50.3,14.1c-48.3-3.3-91.7-23.7-127.8-43.3
	c-84.1-45.6-162.7-107.9-247.5-195.9C316.2,694.4,262.9,620.7,224.5,543c-12.9-26.2-28.5-61.1-33.9-98.3c-4.9-33.6,1.4-55,20.6-71.8
	c13.5-11.8,25.9-24.5,37.8-36.9c6.1-6.4,12.4-12.7,18.6-19c11.4-11.1,23.4-16.7,35.4-16.7c12,0,23.9,5.4,34.9,16.3
	c30.2,29.7,57.4,56.9,83.3,83.2c20.8,21.1,20.8,47.5,0,69l-6.8,7.2H414.5z"/>
<path d="M626.2,198c204.9,0,371.7,166.6,371.7,371.3c0,13.5,11,24.5,24.5,24.5c13.5,0,24.5-11,24.5-24.5
	c0-231.8-188.8-420.3-420.7-420.3c-13.5,0-24.5,11-24.5,24.5C601.6,187,612.7,198,626.2,198z"/>
<path d="M626.2,331.8c131.1,0,237.7,106.6,237.7,237.5c0,13.5,11,24.5,24.5,24.5c13.5,0,24.5-11,24.5-24.5
	c0-158-128.7-286.5-286.8-286.5c-13.5,0-24.5,11-24.5,24.5C601.6,320.8,612.7,331.8,626.2,331.8z"/>
<path d="M626.2,465.7c57.3,0,103.8,46.5,103.8,103.7c0,13.5,11,24.5,24.5,24.5c13.5,0,24.5-11,24.5-24.5
	c0-84.2-68.6-152.7-152.9-152.7c-13.5,0-24.5,11-24.5,24.5C601.6,454.7,612.7,465.7,626.2,465.7z"/>
</svg>
