<?xml version="1.0" encoding="utf-8"?>
<!-- Generator: Adobe Illustrator 26.0.1, SVG Export Plug-In . SVG Version: 6.00 Build 0)  -->
<svg version="1.1" id="Layer_1" xmlns="http://www.w3.org/2000/svg" xmlns:xlink="http://www.w3.org/1999/xlink" x="0px" y="0px"
	 viewBox="0 0 100 100" style="enable-background:new 0 0 100 100;" xml:space="preserve">
<style type="text/css">
	.st0{fill:#F8BB2F;}
</style>
<path class="st0" d="M90.8,86.6h-3.1v-67c0-0.4-0.3-0.8-0.7-1l-34.9-10c-0.3-0.1-0.6,0-0.9,0.2c-0.3,0.2-0.4,0.5-0.4,0.8v8.7
	L17.2,8.6c-0.3-0.1-0.6,0-0.9,0.2c-0.3,0.2-0.4,0.5-0.4,0.8v77h-3.1c-0.6,0-1,0.4-1,1s0.4,1,1,1h78c0.6,0,1-0.4,1-1
	S91.4,86.6,90.8,86.6z M75.7,86.6H62.8V73.7c0-3.6,2.9-6.5,6.5-6.5s6.5,2.9,6.5,6.5V86.6z M69.2,65.3c-4.7,0-8.5,3.8-8.5,8.5v12.8
	h-8V59.4h32.9v27.2h-8V73.7C77.7,69.1,73.9,65.3,69.2,65.3z M85.7,46.8H52.8v-8.6h32.9V46.8z M52.8,48.8h32.9v8.6H52.8V48.8z
	 M85.7,36.2H52.8v-8.6h32.9V36.2z M52.8,10.9l32.9,9.4v5.4H52.8v-6.1V10.9z M17.9,10.9l32.9,9.4v66.2h-8V73.7c0-4.7-3.8-8.5-8.5-8.5
	s-8.5,3.8-8.5,8.5v12.8h-8V10.9z M40.8,86.6H27.9V73.7c0-3.6,2.9-6.5,6.5-6.5s6.5,2.9,6.5,6.5V86.6z"/>
<path class="st0" d="M26.6,32.2c0.6,0,1-0.4,1-1v-6.5c0-0.6-0.4-1-1-1s-1,0.4-1,1v6.5C25.6,31.7,26.1,32.2,26.6,32.2z"/>
<path class="st0" d="M34.4,32.2c0.6,0,1-0.4,1-1v-6.5c0-0.6-0.4-1-1-1s-1,0.4-1,1v6.5C33.4,31.7,33.8,32.2,34.4,32.2z"/>
<path class="st0" d="M42.1,32.2c0.6,0,1-0.4,1-1v-6.5c0-0.6-0.4-1-1-1s-1,0.4-1,1v6.5C41.1,31.7,41.6,32.2,42.1,32.2z"/>
<path class="st0" d="M26.6,46.4c0.6,0,1-0.4,1-1v-6.5c0-0.6-0.4-1-1-1s-1,0.4-1,1v6.5C25.6,45.9,26.1,46.4,26.6,46.4z"/>
<path class="st0" d="M34.4,46.4c0.6,0,1-0.4,1-1v-6.5c0-0.6-0.4-1-1-1s-1,0.4-1,1v6.5C33.4,45.9,33.8,46.4,34.4,46.4z"/>
<path class="st0" d="M42.1,46.4c0.6,0,1-0.4,1-1v-6.5c0-0.6-0.4-1-1-1s-1,0.4-1,1v6.5C41.1,45.9,41.6,46.4,42.1,46.4z"/>
<path class="st0" d="M26.6,60.6c0.6,0,1-0.4,1-1V53c0-0.6-0.4-1-1-1s-1,0.4-1,1v6.5C25.6,60.1,26.1,60.6,26.6,60.6z"/>
<path class="st0" d="M34.4,60.6c0.6,0,1-0.4,1-1V53c0-0.6-0.4-1-1-1s-1,0.4-1,1v6.5C33.4,60.1,33.8,60.6,34.4,60.6z"/>
<path class="st0" d="M42.1,60.6c0.6,0,1-0.4,1-1V53c0-0.6-0.4-1-1-1s-1,0.4-1,1v6.5C41.1,60.1,41.6,60.6,42.1,60.6z"/>
</svg>
