<?xml version="1.0" encoding="utf-8"?>
<!-- Generator: Adobe Illustrator 26.0.1, SVG Export Plug-In . SVG Version: 6.00 Build 0)  -->
<svg version="1.1" id="Layer_1" xmlns="http://www.w3.org/2000/svg" xmlns:xlink="http://www.w3.org/1999/xlink" x="0px" y="0px"
	 viewBox="0 0 512 640" style="enable-background:new 0 0 512 640;" xml:space="preserve">
<g>
	<g>
		<g>
			<path d="M328.6,426.5C328.6,426.5,328.6,426.5,328.6,426.5c-38.3,0-82.3-21.4-120.6-58.7c-0.1-0.1-0.1-0.1-0.2-0.2
				c-37.3-38.3-58.7-82.3-58.7-120.6c0-14.1,7.2-29,20.4-41.8c9-8.8,22.4-17.8,31.8-17.8c14.5,0,18.4,6.9,24.3,17.3
				c1.4,2.5,3,5.4,5.1,8.9c1.2,1.9,2.8,4.3,4.4,6.9c10.7,16.4,17.5,27.8,13.8,37.4c-2.9,7.4-10.5,13.6-17.9,19.5
				c-2.7,2.2-6.7,5.3-8.4,7.2c1.3,7.5,11.1,23.3,28.2,40.3c17,17,32.8,26.8,40.3,28.2c1.9-1.7,5-5.6,7.2-8.4
				c5.9-7.4,12.1-15.1,19.5-18c1.7-0.7,3.6-1,5.6-1c8.5,0,18.5,6.1,31.7,14.8c2.6,1.7,5,3.3,6.9,4.5c3.5,2.1,6.3,3.7,8.9,5.1
				c10.4,5.9,17.3,9.7,17.3,24.2c0,9.4-8.9,22.8-17.8,31.8C357.5,419.3,342.7,426.5,328.6,426.5z M222,353.6
				c34.1,33.1,73.9,52.9,106.6,52.9c19.7,0,38.5-25.6,39.6-32.3c0-1.4-0.1-2.1-0.1-2.4c-1-0.9-4.1-2.6-6.9-4.2
				c-2.5-1.4-5.7-3.2-9.4-5.4c-2.3-1.4-4.9-3.1-7.6-4.9c-5.2-3.4-15.6-10.2-20-11.4c-2.7,1.9-7.5,7.9-10.2,11.3
				c-6.9,8.6-12.8,16-21.1,16c-20.4,0-48.1-26.2-56.1-34.2s-34.2-35.8-34.2-56.1c0-8.4,7.5-14.4,16.1-21.2
				c3.4-2.7,9.3-7.5,11.3-10.2c-1.2-4.4-8-14.8-11.4-20c-1.8-2.7-3.5-5.3-4.9-7.6c-2.2-3.7-4-6.9-5.4-9.4c-1.6-2.8-3.3-5.9-4.2-6.9
				c-0.3-0.1-1.1-0.1-2.4-0.1c-6.7,1-32.3,19.8-32.3,39.6C169.1,279.7,188.9,319.5,222,353.6z"/>
		</g>
		<g>
			<path d="M71.4,517.9c-2.5,0-5-1-6.9-2.8c-2.9-2.8-3.9-7-2.5-10.7l33-89.2c-24.2-37.8-35.5-82.8-31.9-127.2
				c3.8-46.8,24-90.8,56.9-123.7c37.1-37.1,86.8-57.6,139.9-57.6c55,0,107,21.7,146.4,61.1c79.9,79.9,81.5,208.4,3.5,286.4
				c-37.1,37.1-86.8,57.6-139.9,57.6c0,0,0,0,0,0c-38.5,0-76-10.8-108.8-31.2l-85.9,36.4C74,517.6,72.7,517.9,71.4,517.9z
				 M162.1,459.4c1.9,0,3.8,0.6,5.5,1.6c30.6,20.1,66,30.8,102.3,30.8c47.8,0,92.4-18.4,125.8-51.7c70.2-70.2,68.6-186-3.5-258.1
				c-35.6-35.6-82.6-55.2-132.3-55.2c-47.8,0-92.5,18.4-125.8,51.7C73.6,239,65.3,335.7,114.4,408.4c1.8,2.7,2.2,6,1.1,9.1
				l-26.7,72.2l69.4-29.5C159.5,459.6,160.8,459.4,162.1,459.4z"/>
		</g>
	</g>
</g>
</svg>
